<?xml version="1.0" encoding="UTF-8"?>
<svg width="40px" height="40px" viewBox="0 0 40 40" version="1.1" xmlns="http://www.w3.org/2000/svg" xmlns:xlink="http://www.w3.org/1999/xlink">
    <!-- Generator: Sketch 55.2 (78181) - https://sketchapp.com -->
    <title>ic_google</title>
    <desc>Created with Sketch.</desc>
    <g id="Page-1" stroke="none" stroke-width="1" fill="none" fill-rule="evenodd">
        <g id="02_Login" transform="translate(-670.000000, -563.000000)">
            <g id="Group-6" transform="translate(475.000000, 80.000000)">
                <g id="Group" transform="translate(195.000000, 483.000000)">
                    <g id="Group-3">
                        <rect id="Rectangle-4" fill="#FF5748" x="0" y="0" width="40" height="40" rx="20"></rect>
                        <g id="Group-5" transform="translate(12.000000, 12.000000)" fill="#FFFFFF">
                            <path d="M15.2741654,6.47601408 C13.4967769,6.50282603 11.7189009,6.50282603 9.94151248,6.50282603 C9.43403542,6.50282603 8.91242114,6.47601408 8.41713132,6.50282603 C8.31085851,6.50282603 8.1504743,6.62274856 8.1504743,6.68953469 C8.13682458,7.71911352 8.13682458,8.74820487 8.13682458,9.81727039 L12.4808478,9.81727039 C12.4408736,10.0312785 12.4008994,10.1916627 12.3341133,10.3383972 C11.6784393,12.3166315 9.63341882,13.2925864 7.42801415,12.9323314 C4.70148271,12.4775032 3.01769232,9.96449236 3.51200716,7.23796092 C3.56563106,6.85040638 3.69920331,6.47601408 3.83277557,6.12843373 C4.74145689,4.15019939 6.9736735,2.94707413 9.17956565,3.44187646 C9.96783694,3.61542289 10.6503229,3.97665296 11.2236111,4.49777975 C12.0260196,3.69585873 12.7879665,2.9339119 13.6166994,2.10517894 C13.5630755,2.06520476 13.4699649,1.99793114 13.416341,1.9316325 C11.4917306,0.314140756 9.28583846,-0.287909367 6.81328929,0.126944604 C3.24388767,0.701695288 0.678715407,3.50866258 0.130776672,6.78313277 C-0.123205607,8.17345418 -0.0164453016,9.65688619 0.531980924,11.100344 C1.89549039,14.5624978 5.3829937,16.6874667 9.12594175,16.2735877 C10.9569541,16.0727418 12.5880956,15.4180427 13.8443572,14.0676955 C15.7280185,12.0631367 16.2223334,9.65688619 15.9157022,6.99714087 C15.8620783,6.55644993 15.6890193,6.47601408 15.2741654,6.47601408" id="Fill-1"></path>
                        </g>
                    </g>
                </g>
            </g>
        </g>
    </g>
</svg>