<?xml version="1.0" encoding="UTF-8"?>
<svg width="16px" height="4px" viewBox="0 0 16 4" version="1.1" xmlns="http://www.w3.org/2000/svg" xmlns:xlink="http://www.w3.org/1999/xlink">
    <!-- Generator: Sketch 55.2 (78181) - https://sketchapp.com -->
    <title>ic_mais</title>
    <desc>Created with Sketch.</desc>
    <g id="Page-1" stroke="none" stroke-width="1" fill="none" fill-rule="evenodd">
        <g id="13_Dashboard_Admin" transform="translate(-796.000000, -260.000000)" fill="#BFC5D2">
            <g id="Module/Card/Line-Chart-Medium-Copy" transform="translate(326.000000, 103.000000)">
                <g id="Card">
                    <g id="linha_panico" transform="translate(0.000000, 151.000000)">
                        <g id="Group-4" transform="translate(470.000000, 0.000000)">
                            <g id="Element/Icon/Options">
                                <path d="M2,9.5 C1.17157288,9.5 0.5,8.82842712 0.5,8 C0.5,7.17157288 1.17157288,6.5 2,6.5 C2.82842712,6.5 3.5,7.17157288 3.5,8 C3.5,8.82842712 2.82842712,9.5 2,9.5 Z M8,9.5 C7.17157288,9.5 6.5,8.82842712 6.5,8 C6.5,7.17157288 7.17157288,6.5 8,6.5 C8.82842712,6.5 9.5,7.17157288 9.5,8 C9.5,8.82842712 8.82842712,9.5 8,9.5 Z M14,9.5 C13.1715729,9.5 12.5,8.82842712 12.5,8 C12.5,7.17157288 13.1715729,6.5 14,6.5 C14.8284271,6.5 15.5,7.17157288 15.5,8 C15.5,8.82842712 14.8284271,9.5 14,9.5 Z" id="🎨-Icon-color"></path>
                            </g>
                        </g>
                    </g>
                </g>
            </g>
        </g>
    </g>
</svg>