<?xml version="1.0" encoding="UTF-8"?>
<svg width="9px" height="6px" viewBox="0 0 9 6" version="1.1" xmlns="http://www.w3.org/2000/svg" xmlns:xlink="http://www.w3.org/1999/xlink">
    <!-- Generator: Sketch 55.2 (78181) - https://sketchapp.com -->
    <title>ic_seta_baixo</title>
    <desc>Created with Sketch.</desc>
    <g id="Page-1" stroke="none" stroke-width="1" fill="none" fill-rule="evenodd">
        <g id="03_Dashboard_Associado" transform="translate(-791.000000, -141.000000)" fill="#AF0000" fill-rule="nonzero">
            <g id="Module/Card/Line-Chart-Medium-Copy" transform="translate(326.000000, 103.000000)">
                <g id="Card">
                    <g id="fundo">
                        <g id="filtro" transform="translate(346.000000, 26.000000)">
                            <g id="Group-11" transform="translate(119.000000, 12.000000)">
                                <g id="Group" transform="translate(4.444444, 3.000000) scale(-1, 1) rotate(-270.000000) translate(-4.444444, -3.000000) translate(2.000000, -1.000000)">
                                    <path d="M1.34122976,3.95020125 L4.56249399,7.00192525 C4.7794519,7.20746437 4.7794519,7.54070909 4.56249399,7.7462482 C4.34553604,7.95178728 3.99377772,7.95178728 3.77681977,7.7462482 L0.162718453,4.32236273 C-0.0542394844,4.11682361 -0.0542394844,3.7835789 0.162718453,3.57803978 L3.77681977,0.154154324 C3.99377772,-0.0513847747 4.34553604,-0.0513847747 4.56249399,0.154154324 C4.7794519,0.359693423 4.7794519,0.692938152 4.56249399,0.898477251 L1.34122976,3.95020125 Z" id="Path" transform="translate(2.362606, 3.950201) scale(-1, 1) translate(-2.362606, -3.950201) "></path>
                                </g>
                            </g>
                        </g>
                    </g>
                </g>
            </g>
        </g>
    </g>
</svg>